<?xml version="1.0" encoding="utf-8"?>
<!-- Generator: Adobe Illustrator 15.0.0, SVG Export Plug-In . SVG Version: 6.00 Build 0)  -->
<!DOCTYPE svg PUBLIC "-//W3C//DTD SVG 1.1//EN" "http://www.w3.org/Graphics/SVG/1.1/DTD/svg11.dtd">
<svg version="1.1"  xmlns="http://www.w3.org/2000/svg" xmlns:xlink="http://www.w3.org/1999/xlink" x="0px" y="0px"
	 width="48px" height="48px" viewBox="0 0 48 48" enable-background="new 0 0 48 48" xml:space="preserve">
<g>
	<path fill="#2196F3" d="M45,34V18c0-4.418-3.582-8-8-8H16c-4.418,0-8,3.582-8,8v16H45z"/>
	<path fill="#2196F3" d="M11,33c0,0.552-0.448,1-1,1H4c-0.552,0-1-0.448-1-1l0,0c0-0.552,0.448-1,1-1h6C10.552,32,11,32.448,11,33
		L11,33z"/>
</g>
<path fill="#0D47A1" d="M16,12c-3.309,0-6,2.691-6,6v14h12V18C22,14.691,19.309,12,16,12z"/>
<g>
	<rect x="28" y="4" fill="#FF3D00" width="6" height="4"/>
	<rect x="28" y="6" fill="#FF3D00" width="2" height="11"/>
	<circle fill="#FF3D00" cx="29" cy="18" r="2"/>
</g>
<circle fill="#DD2C00" cx="29" cy="18" r="1"/>
<rect x="25" y="34" fill="#FFCC80" width="5" height="10"/>
<rect x="25" y="34" fill="#FFA726" width="5" height="2"/>
<path fill="#CFD8DC" d="M13,21v9c0,1.025,0.975,2,2,2h7V19h-7C13.975,19,13,19.975,13,21z"/>
<path fill="#78909C" d="M13,21v1l9,7v-2l-8.782-6.831C13.083,20.43,13,20.711,13,21z"/>
</svg>
