<?xml version="1.0" encoding="iso-8859-1"?>
<!-- Generator: Adobe Illustrator 19.1.1, SVG Export Plug-In . SVG Version: 6.00 Build 0)  -->
<svg version="1.1"  xmlns="http://www.w3.org/2000/svg" xmlns:xlink="http://www.w3.org/1999/xlink" x="0px" y="0px"
	 viewBox="0 0 48 48" style="enable-background:new 0 0 48 48;" xml:space="preserve">
<path style="fill:#3F51B5;" d="M13.999,24.717L14.756,20H17l-1.771,8h-1.98l-1.244-4.749L10.753,28h-1.98L7,20h2.246l0.743,4.828
	L11.184,20h1.632L13.999,24.717z"/>
<path style="fill:#3F51B5;" d="M25.999,24.717L26.756,20H29l-1.771,8h-1.98l-1.244-4.749L22.753,28h-1.98L19,20h2.246l0.743,4.828
	L23.184,20h1.632L25.999,24.717z"/>
<path style="fill:#3F51B5;" d="M37.999,24.717L38.756,20H41l-1.771,8h-1.98l-1.244-4.749L34.753,28h-1.98L31,20h2.246l0.743,4.828
	L35.184,20h1.632L37.999,24.717z"/>
<rect x="10" y="13" style="fill:#2196F3;" width="28" height="2"/>
<rect x="10" y="33" style="fill:#2196F3;" width="28" height="2"/>
<path style="fill:#2196F3;" d="M23,7.201V18h2V7.201C24.667,7.08,24.332,7,24,7S23.333,7.08,23,7.201z"/>
<path style="fill:#2196F3;" d="M9.178,18c1.782-4.385,5.448-7.809,9.994-9.252c-1.702,2.13-3.001,5.367-3.668,9.252h2.021
	c0.976-5.371,3.19-8.969,5.475-9.799v-0.15C23.332,8.03,23.662,8,24,8s0.668,0.03,1,0.051v0.15c2.285,0.831,4.499,4.428,5.475,9.799
	h2.021c-0.667-3.885-1.966-7.122-3.668-9.252c4.546,1.443,8.212,4.866,9.994,9.252h2.128C38.471,11.021,31.819,6,24,6
	S9.529,11.021,7.05,18H9.178z"/>
<path style="fill:#2196F3;" d="M38.822,30c-1.782,4.385-5.448,7.809-9.994,9.252c1.702-2.13,3.001-5.367,3.668-9.252h-2.021
	c-0.976,5.371-3.19,8.969-5.475,9.799v0.15C24.668,39.97,24.338,40,24,40s-0.668-0.03-1-0.051v-0.15
	c-2.285-0.831-4.499-4.428-5.475-9.799h-2.021c0.667,3.885,1.966,7.122,3.668,9.252C14.626,37.809,10.96,34.385,9.178,30H7.05
	C9.529,36.979,16.181,42,24,42s14.471-5.021,16.95-12H38.822z"/>
<path style="fill:#2196F3;" d="M25,40.799V30h-2v10.799C23.333,40.92,23.668,41,24,41S24.667,40.92,25,40.799z"/>
</svg>
