<svg clip-rule="evenodd" fill-rule="evenodd" stroke-linejoin="round" stroke-miterlimit="1.41421" viewBox="0 0 560 400" xmlns="http://www.w3.org/2000/svg"><g fill-rule="nonzero"><path d="m204.829 169.344c-1.469-5.459-5.774-9.764-11.233-11.234-9.974-2.729-49.869-2.729-49.869-2.729s-39.895 0-49.869 2.624c-5.354 1.47-9.764 5.88-11.233 11.339-2.625 9.974-2.625 30.656-2.625 30.656s0 20.787 2.625 30.656c1.469 5.459 5.774 9.764 11.233 11.234 10.079 2.729 49.869 2.729 49.869 2.729s39.895 0 49.869-2.624c5.459-1.47 9.764-5.775 11.233-11.234 2.625-9.974 2.625-30.656 2.625-30.656s.105-20.787-2.625-30.761z" fill="#f00"/><path d="m131.024 219.108 33.175-19.108-33.175-19.108z" fill="#fff"/><g fill="#282828"><path d="m265.092 236.64c-2.52-1.679-4.305-4.304-5.354-7.979-1.05-3.569-1.575-8.399-1.575-14.278v-8.084c0-5.984.63-10.813 1.785-14.488 1.259-3.675 3.149-6.299 5.669-7.979 2.624-1.68 5.984-2.52 10.184-2.52 4.094 0 7.454.84 9.973 2.52 2.52 1.68 4.305 4.409 5.46 7.979 1.154 3.57 1.784 8.399 1.784 14.488v8.084c0 5.984-.525 10.709-1.679 14.383-1.155 3.57-2.94 6.3-5.46 7.979-2.519 1.68-5.984 2.52-10.288 2.52-4.41-.105-7.979-.945-10.499-2.625zm14.173-8.818c.735-1.785 1.05-4.83 1.05-8.924v-17.428c0-3.99-.315-6.929-1.05-8.819s-1.89-2.73-3.674-2.73c-1.68 0-2.94.945-3.57 2.73-.735 1.89-1.05 4.829-1.05 8.819v17.428c0 4.094.315 7.139 1.05 8.924.63 1.784 1.89 2.729 3.675 2.729 1.679 0 2.834-.84 3.569-2.729z"/><path d="m458.898 214.488v2.835c0 3.569.105 6.299.315 8.084s.63 3.149 1.364 3.884c.63.84 1.68 1.26 3.15 1.26 1.89 0 3.15-.735 3.885-2.205.734-1.469 1.049-3.884 1.154-7.349l10.814.63c.105.525.105 1.155.105 1.995 0 5.144-1.365 9.029-4.199 11.549-2.835 2.519-6.825 3.779-11.969 3.779-6.194 0-10.499-1.995-13.018-5.879-2.52-3.885-3.78-9.869-3.78-18.058v-9.764c0-8.399 1.26-14.488 3.885-18.372 2.624-3.885 7.034-5.775 13.228-5.775 4.304 0 7.664.84 9.974 2.415 2.309 1.575 3.884 4.095 4.829 7.349.945 3.36 1.365 7.979 1.365 13.858v9.554h-21.102zm1.574-23.517c-.629.84-1.049 2.1-1.259 3.885-.21 1.784-.315 4.514-.315 8.189v3.989h9.238v-3.989c0-3.57-.105-6.3-.314-8.189-.21-1.89-.735-3.15-1.365-3.885s-1.68-1.155-2.94-1.155c-1.47-.105-2.415.315-3.045 1.155z"/><path d="m234.436 213.438-14.279-51.758h12.494l5.039 23.412c1.26 5.774 2.205 10.709 2.835 14.803h.315c.42-2.94 1.365-7.769 2.835-14.698l5.249-23.517h12.493l-14.488 51.758v24.777h-12.388v-24.777z"/><path d="m333.648 182.362v55.958h-9.868l-1.05-6.824h-.315c-2.625 5.144-6.719 7.769-12.074 7.769-3.674 0-6.404-1.26-8.189-3.674-1.785-2.415-2.624-6.195-2.624-11.444v-41.785h12.598v41.05c0 2.52.315 4.305.84 5.354.525 1.05 1.47 1.575 2.73 1.575 1.049 0 2.099-.315 3.149-1.05 1.05-.63 1.785-1.469 2.205-2.519v-44.41z"/><path d="m398.215 182.362v55.958h-9.869l-1.049-6.824h-.315c-2.625 5.144-6.72 7.769-12.074 7.769-3.674 0-6.404-1.26-8.189-3.674-1.785-2.415-2.625-6.195-2.625-11.444v-41.785h12.599v41.05c0 2.52.315 4.305.84 5.354.525 1.05 1.47 1.575 2.729 1.575 1.05 0 2.1-.315 3.15-1.05 1.05-.63 1.785-1.469 2.205-2.519v-44.41z"/><path d="m367.874 171.864h-12.493v66.351h-12.284v-66.351h-12.493v-10.184h37.27z"/><path d="m439.895 191.286c-.735-3.569-1.995-6.089-3.675-7.664-1.679-1.575-4.094-2.415-7.034-2.415-2.309 0-4.514.63-6.509 1.995-1.995 1.26-3.569 3.045-4.619 5.144h-.105v-29.501h-12.179v79.37h10.394l1.26-5.249h.315c.945 1.89 2.414 3.359 4.409 4.514 1.995 1.05 4.095 1.68 6.509 1.68 4.305 0 7.349-1.995 9.344-5.879 1.995-3.885 3.045-10.079 3.045-18.373v-8.819c-.105-6.404-.42-11.338-1.155-14.803zm-11.549 22.782c0 4.095-.21 7.244-.524 9.554-.315 2.31-.945 3.99-1.68 4.934-.84.945-1.89 1.47-3.15 1.47-1.05 0-1.995-.21-2.835-.735-.839-.525-1.574-1.26-2.099-2.204v-31.706c.42-1.47 1.155-2.73 2.204-3.78 1.05-.945 2.205-1.47 3.36-1.47 1.26 0 2.31.525 2.94 1.47.735 1.05 1.155 2.73 1.469 5.039.315 2.415.42 5.775.42 10.079v7.349z"/></g></g></svg>