<?xml version="1.0" encoding="utf-8"?>
<!-- Generator: Adobe Illustrator 22.0.1, SVG Export Plug-In . SVG Version: 6.00 Build 0)  -->
<svg version="1.1" id="Layer_1" xmlns="http://www.w3.org/2000/svg" xmlns:xlink="http://www.w3.org/1999/xlink" x="0px" y="0px"
	 viewBox="0 0 138 30" style="enable-background:new 0 0 138 30;" xml:space="preserve">
<style type="text/css">
	.st0{fill:#FFFFFF;}
</style>
<image style="display:none;overflow:visible;" width="138" height="30" xlink:href="../../../HTML/ThemeForest - Sudo v1.3 - High Quality Multipurpose HTML template/demo/files/uploads/logo-sudo-dark.png" >
</image>
<g>
	<g>
		<path class="st0" d="M11.1,29.8H4.1V0.2h10.4c0.2,0,1.5,0,3,0.9c1.1,0.7,2.5,2.1,2.9,4.8c1.7,1,2.9,3,3.2,4.9
			c0.4,2.3-0.4,4.8-1.9,6.7c-1.7,1.9-4.2,3.1-7,3.2l0,0l-0.3,0c-1,0-2.1,0-3.1,0V29.8z M6.2,27.5H9v-9h1.1c1.4,0,2.8,0,4.1-0.1
			l0.3,0c2.3-0.1,4.3-1,5.6-2.5c1.1-1.3,1.7-3.1,1.4-4.7c-0.1-0.8-0.5-1.7-1.1-2.4c-0.3,3.3-1.7,5-2.8,5.8c-1.4,1.1-2.9,1.1-3,1.1
			l0,0H9L9,5.2h1.1c0,0,4.7,0,7.7,0v0c0,0,0.1,0,0.1,0c0,0,0,0,0.1,0c-0.3-0.9-0.8-1.6-1.5-2.1c-0.9-0.6-1.9-0.6-2-0.6H6.2V27.5z
			 M11.1,13.5h3.3c0.1,0,1-0.1,1.9-0.8c1.2-1,1.9-2.7,1.9-5.1c-0.1,0-0.3,0-0.4,0c-2.1,0-5.1,0-6.7,0L11.1,13.5z"/>
	</g>
</g>
<g>
	<path class="st0" d="M44,6.5c0,1.5-1.1,2.6-2.6,2.6h-2.2v3.2h-0.6V3.9h2.9C42.9,3.9,44,5.1,44,6.5z M43.4,6.5c0-1.2-0.8-2-2-2h-2.2
		v4h2.2C42.5,8.5,43.4,7.7,43.4,6.5z"/>
	<path class="st0" d="M50.3,6.3v0.6c-1,0-2,0.6-2,2.2v3.3h-0.6v-6h0.6v1.2C48.8,6.6,49.5,6.3,50.3,6.3z"/>
	<path class="st0" d="M59.5,6.3v6h-0.6V11c-0.5,0.9-1.4,1.5-2.6,1.5c-1.7,0-3.1-1.4-3.1-3.1c0-1.8,1.4-3.1,3.1-3.1
		c1.2,0,2.1,0.6,2.6,1.5V6.3H59.5z M58.9,9.3c0-1.4-1.1-2.6-2.5-2.6s-2.5,1.1-2.5,2.6s1.1,2.6,2.5,2.6S58.9,10.8,58.9,9.3z"/>
	<path class="st0" d="M65,6.9v3.9c0,1.1,0.6,1.1,1.8,1v0.5c-1.6,0.2-2.4-0.1-2.4-1.5V6.9h-1.3V6.3h1.3V4.8L65,4.7v1.7h1.8v0.6H65z"
		/>
	<path class="st0" d="M75.7,8.6v3.7h-0.6V8.6c0-1.1-0.6-1.8-1.8-1.8c-1.2,0-2.1,0.8-2.1,2.4v3.2h-0.6V3.9h0.6v3.5
		c0.5-0.9,1.2-1.3,2.1-1.3C74.8,6.2,75.7,7.2,75.7,8.6z"/>
	<path class="st0" d="M85.7,6.3v6h-0.6V11c-0.5,0.9-1.4,1.5-2.6,1.5c-1.7,0-3.1-1.4-3.1-3.1c0-1.8,1.4-3.1,3.1-3.1
		c1.2,0,2.1,0.6,2.6,1.5V6.3H85.7z M85.1,9.3c0-1.4-1.1-2.6-2.5-2.6c-1.4,0-2.5,1.1-2.5,2.6s1.1,2.6,2.5,2.6
		C84,11.9,85.1,10.8,85.1,9.3z"/>
	<path class="st0" d="M98.6,8.5v3.8H98V8.5c0-1.1-0.7-1.8-1.6-1.8c-1,0-1.8,0.7-1.8,2.2v3.3H94V8.5c0-1.1-0.6-1.8-1.5-1.8
		c-1,0-1.9,0.7-1.9,2.2v3.3H90v-6h0.6v1c0.4-0.8,1.2-1.2,1.9-1.2c0.9,0,1.6,0.4,1.9,1.2c0.4-0.8,1.2-1.2,2-1.2
		C97.6,6.2,98.6,7,98.6,8.5z"/>
	<path class="st0" d="M108.3,9.4c0,0.1,0,0.2,0,0.3h-5.4c0.1,1.4,1.2,2.2,2.5,2.2c1,0,1.7-0.5,2.1-1.1l0.5,0.3
		c-0.5,0.8-1.4,1.4-2.6,1.4c-1.8,0-3.2-1.3-3.2-3.1c0-1.8,1.3-3.1,3.1-3.1C107.2,6.2,108.3,7.7,108.3,9.4z M102.9,9.1h4.8
		c-0.1-1.5-1.2-2.3-2.3-2.3C104,6.8,103,7.7,102.9,9.1z"/>
	<path class="st0" d="M115.9,10.8c0,1-0.9,1.7-2.1,1.7c-1.2,0-2-0.6-2.3-1.3l0.5-0.3c0.2,0.6,0.9,1.1,1.8,1.1c0.8,0,1.5-0.4,1.5-1.1
		c0-1.6-3.6-0.7-3.6-2.9c0-0.9,0.8-1.7,2-1.7c1,0,1.7,0.5,2,1.2l-0.5,0.3c-0.3-0.6-0.9-0.9-1.5-0.9c-0.8,0-1.4,0.4-1.4,1.1
		C112.3,9.5,115.9,8.6,115.9,10.8z"/>
	<path class="st0" d="M124.8,8.6v3.7h-0.6V8.6c0-1.1-0.6-1.8-1.8-1.8c-1.2,0-2.1,0.8-2.1,2.4v3.2h-0.6V3.9h0.6v3.5
		c0.5-0.9,1.2-1.3,2.1-1.3C123.9,6.2,124.8,7.2,124.8,8.6z"/>
	<path class="st0" d="M44,20.9c0,1.5-1.1,2.6-2.6,2.6h-2.2v3.2h-0.6v-8.4h2.9C42.9,18.3,44,19.5,44,20.9z M43.4,20.9
		c0-1.2-0.8-2-2-2h-2.2v4h2.2C42.5,22.9,43.4,22.1,43.4,20.9z"/>
	<path class="st0" d="M53.3,20.7v6h-0.6v-1.4c-0.5,0.9-1.4,1.5-2.6,1.5c-1.7,0-3.1-1.4-3.1-3.1c0-1.8,1.4-3.1,3.1-3.1
		c1.2,0,2.1,0.6,2.6,1.5v-1.4H53.3z M52.7,23.7c0-1.4-1.1-2.6-2.5-2.6s-2.5,1.1-2.5,2.6c0,1.4,1.1,2.6,2.5,2.6S52.7,25.2,52.7,23.7z
		"/>
	<path class="st0" d="M65.4,20.7l-1.9,6h-0.7l-1.7-5.1l-1.7,5.1h-0.7l-1.9-6h0.6l1.6,5.2l1.7-5.2h0.6l1.7,5.2l1.6-5.2H65.4z"/>
	<path class="st0" d="M74.8,20.7v6h-0.6v-1.4c-0.5,0.9-1.4,1.5-2.6,1.5c-1.7,0-3.1-1.4-3.1-3.1c0-1.8,1.4-3.1,3.1-3.1
		c1.2,0,2.1,0.6,2.6,1.5v-1.4H74.8z M74.2,23.7c0-1.4-1.1-2.6-2.5-2.6c-1.4,0-2.5,1.1-2.5,2.6c0,1.4,1.1,2.6,2.5,2.6
		C73.1,26.3,74.2,25.2,74.2,23.7z"/>
	<path class="st0" d="M81.7,20.7v0.6c-1,0-2,0.6-2,2.2v3.3h-0.6v-6h0.6v1.2C80.1,21,80.9,20.7,81.7,20.7z"/>
	<path class="st0" d="M84.3,26.3c0-0.3,0.2-0.5,0.5-0.5c0.3,0,0.5,0.2,0.5,0.5s-0.2,0.5-0.5,0.5C84.5,26.9,84.3,26.6,84.3,26.3z"/>
</g>
</svg>
