<svg xmlns="http://www.w3.org/2000/svg" viewBox="0 0 2000 2000"><defs><style>.cls-1{fill:#ac0102;}.cls-2{fill:#ff9c01;}.cls-3{fill:#ecd2bb;}.cls-4{fill:#090402;}.cls-5{fill:#d38430;}.cls-6{stroke:#000;stroke-miterlimit:10;}.cls-7{fill:#fff;}</style></defs><g id="Background"><rect class="cls-1" x="-1481.06" y="-443.06" width="4674.85" height="320.15" transform="translate(76.36 169.82) rotate(-11.85)"/><rect class="cls-2" x="-1481.06" y="-118.06" width="4674.85" height="320.15" transform="translate(9.62 176.75) rotate(-11.85)"/><rect class="cls-1" x="-1481.06" y="206.94" width="4674.85" height="320.15" transform="translate(-57.12 183.68) rotate(-11.85)"/><rect class="cls-2" x="-1481.06" y="531.94" width="4674.85" height="320.15" transform="translate(-123.86 190.6) rotate(-11.85)"/><rect class="cls-1" x="-1481.06" y="856.94" width="4674.85" height="320.15" transform="translate(-190.6 197.53) rotate(-11.85)"/><rect class="cls-2" x="-1481.06" y="1181.94" width="4674.85" height="320.15" transform="translate(-257.34 204.46) rotate(-11.85)"/><rect class="cls-1" x="-1481.06" y="1506.94" width="4674.85" height="320.15" transform="translate(-324.08 211.38) rotate(-11.85)"/><rect class="cls-2" x="-1481.06" y="1831.94" width="4674.85" height="320.15" transform="translate(-390.82 218.31) rotate(-11.85)"/><rect class="cls-1" x="-1481.06" y="2156.94" width="4674.85" height="320.15" transform="translate(-457.55 225.24) rotate(-11.85)"/></g><g id="Vector"><path class="cls-3" d="M1422.32,1090.69a26,26,0,0,0-4.44-13.23c-4.41-6.24-11-9.89-26.83-2.38l-21.41,3.33s6.68-360.91,4.45-368.7-297-184.63-352.57-184.63c-20.83.26-26.22.16-26.82.14h-.06c-.62,0-6.17.12-27-.14-55.62,0-350.35,176.84-352.58,184.63s4.45,368.7,4.45,368.7l-21.41-3.33c-15.85-7.51-22.42-3.86-26.82,2.38a26.05,26.05,0,0,0-4.45,13.23c-10,141.24,47.12,169.85,47.12,169.85,1.48,26,5.93,135.41,20.76,191.76,23.73,50.42,236.16,223.1,320.14,243.67,26.7,6.55,39,6.89,39.7,6.91h.06c.64,0,13-.36,39.7-6.91,84-20.57,296.4-193.25,320.13-243.67,14.47-55,18.76-156.66,20.76-191.76C1375.2,1260.54,1432.33,1231.93,1422.32,1090.69Z"/><path class="cls-4" d="M637,1043.65h61.45S736.51,978,810.47,980s107.61,48.1,120.68,80.36c25.58-5.56,78.13-25.31,137.08.83,11.12-17.79,40.78-80.45,122.72-80.08s106,54.13,115.3,65.25c12.6,1.11,37.07,0,37.07,0v48.94h-20.76s14.09,142.74-129,149.41c-125.31-.74-136.43-122.72-133.84-147.93-19.28-8.15-54.87-18.9-116.78-1.48-.37,23,3.71,145.33-131.61,149.41C697.49,1246.54,676.73,1133.1,679,1091.57H637.8Z"/><polygon class="cls-5" points="782.67 867.65 814.09 855.13 845.23 944.67 851.9 774.5 814.37 793.96 812.42 685.24 761.26 693.03 782.67 867.65"/><path class="cls-6" d="M568.47,989.62s58.58,161.64,74.15,177.95c-1.48-42.26-10-257.24,10.06-265,0,0,21.08,120.45,41.47,124.89-3.7-44.48-4.82-108.62,17.43-136.8,21.5,15.2,74.89,57.84,97.5,61.92C793.88,931.78,716,851.7,782.76,732.33c45.23,88.23,311.42,169.79,284.73,256.55,0,0,70.44-53.39,54.13-167.58,0,0,114.18,58.58,101.58,141.63,41.52,5.19,94.17,1.48,117.9-63,0,0,1.85,222.82-3.34,267.3,26.69-20.76,105.29-187.22,109.74-237.27,9.73,13.62,14.18,25.58,16.4,35.59,9.18-20,27-67.84,13.63-147.92,6.67,2.22,16.5,7.13,18.26,14.64s-2-197-155.44-269.71c17.43-7,33-13.72,44.49-9.64,0,0-67.84-66.74-227.26-76.38,6.58-8.43,11-11.77,24.93-11.77-10.29-8.89-160.25-60-283.34-2.57-3.8-1.6-4.93-2.57,5.56-35.52-29.75,12.51-45.32,15.85-73.4,49.49-17.52-7.5-65.9-39.2-99.55-39.76,9.46,10.85,39.21,38.37,41.15,55.06-49.49,7.78-161,31.14-183.51,107.05,29.75,7.78,32.25,8.62,33.92,10s-82.86,74.52-115.11,178c12.79-4.17,34.75-20,56.72-13.9,0,0,18.07,31.42-41.15,85.92,8.34,12.79,22.83,18.14,35.62,20.65-4.85,20.78-22.09,75.65-11.15,132.56,0,0,16.54-27.53,18.49-24.19A12.94,12.94,0,0,1,568.47,989.62Z"/><circle class="cls-7" cx="810.19" cy="1113.45" r="102.32"/><circle class="cls-7" cx="1192.24" cy="1113.45" r="102.32"/></g></svg>