<?xml version="1.0" encoding="utf-8"?>
<!-- Generator: Adobe Illustrator 25.0.1, SVG Export Plug-In . SVG Version: 6.00 Build 0)  -->
<svg version="1.1" id="Logo" xmlns="http://www.w3.org/2000/svg" xmlns:xlink="http://www.w3.org/1999/xlink" x="0px" y="0px"
	 viewBox="0 0 156 42" style="enable-background:new 0 0 156 42;" xml:space="preserve">
<style type="text/css">
	.st0{fill:#FFFFFF;}
	.st1{fill:#1ED760;}
</style>
<g>
	<path class="st0" d="M9,29.3v-21h4.8l1.7,10.8l1.7-10.8h4.9v21h-3.9V19.2l-1.7,10.1h-2l-1.7-10v10H9z"/>
	<path class="st0" d="M22.7,18.8c0-1.6,0.1-3,0.4-4.3c0.3-1.3,0.7-2.4,1.2-3.3c0.5-0.9,1.1-1.6,1.8-2.1c0.7-0.5,1.5-0.8,2.4-0.8
		s1.6,0.3,2.4,0.8c0.7,0.5,1.3,1.2,1.8,2.1c0.5,0.9,0.9,2,1.2,3.3c0.3,1.3,0.4,2.7,0.4,4.3c0,1.6-0.1,3-0.4,4.3
		c-0.3,1.3-0.7,2.4-1.2,3.3c-0.5,0.9-1.1,1.6-1.8,2.1c-0.7,0.5-1.5,0.8-2.4,0.8s-1.6-0.2-2.4-0.8c-0.7-0.5-1.3-1.2-1.8-2.1
		c-0.5-0.9-0.9-2-1.2-3.3C22.9,21.8,22.7,20.4,22.7,18.8z M26.4,18.8c0,1,0,1.9,0.1,2.7c0.1,0.8,0.2,1.5,0.4,2.1
		c0.2,0.6,0.4,1,0.6,1.4s0.5,0.5,0.8,0.5s0.6-0.2,0.8-0.5c0.2-0.3,0.5-0.8,0.6-1.4c0.2-0.6,0.3-1.3,0.4-2.1c0.1-0.8,0.1-1.7,0.1-2.7
		c0-1,0-1.9-0.1-2.7c-0.1-0.8-0.2-1.5-0.4-2.1c-0.2-0.6-0.4-1-0.6-1.4c-0.3-0.3-0.5-0.5-0.8-0.5s-0.6,0.2-0.8,0.5S27.2,13.4,27,14
		c-0.2,0.6-0.3,1.3-0.4,2.1C26.5,16.9,26.4,17.8,26.4,18.8z"/>
	<path class="st0" d="M36.9,8.3l1.7,12.7l1.8-12.7h3.8l-3.3,21h-4.4L33,8.3H36.9z"/>
	<path class="st0" d="M44.3,8.3H48v21h-3.7V8.3z"/>
	<path class="st0" d="M49,29.3v-21H56V12h-3.2v4.7h3.2v3.9h-3.4v4.7h3.4v3.9H49z"/>
	<path class="st0" d="M76.5,8.3v3.8h-3.8v17.2h-3.7V12.1h-4V8.3H76.5z"/>
	<path class="st0" d="M82.4,8.3c0.7,0,1.4,0.1,2,0.3c0.6,0.2,1.2,0.6,1.7,1c0.5,0.5,0.9,1.1,1.2,1.8c0.3,0.7,0.5,1.6,0.6,2.7
		c0.1,1.3,0.1,2.4-0.1,3.3c-0.2,0.9-0.5,1.6-0.8,2.1c-0.3,0.6-0.8,1.1-1.2,1.5l2.5,8.3h-3.8l-1.8-7l-0.8,0.2v6.9h-3.8l0-21H82.4z
		 M81.9,18.7c0.5,0,0.8-0.2,1.1-0.3c0.3-0.2,0.5-0.4,0.8-0.7c0.2-0.3,0.3-0.6,0.4-1c0.1-0.4,0.1-0.8,0.1-1.2c0-0.4,0-0.8-0.1-1.2
		S84,13.4,83.8,13s-0.4-0.6-0.7-0.8c-0.3-0.2-0.7-0.3-1.2-0.3V18.7z"/>
	<path class="st0" d="M87.3,8.3H91v21h-3.7V8.3z"/>
	<path class="st0" d="M95.6,18.5c0,0.9,0.1,1.8,0.3,2.6c0.2,0.8,0.4,1.5,0.7,2c0.3,0.6,0.6,1,1,1.3c0.4,0.3,0.8,0.5,1.2,0.5v-3.2H97
		v-3.2h5.1v10.8c0,0-0.1,0-0.3,0h-0.5c-0.4,0-0.9,0-1.6-0.1c-0.6,0-1.3-0.2-2-0.4s-1.4-0.6-2.1-1c-0.7-0.5-1.3-1.1-1.9-1.9
		c-0.6-0.8-1-1.8-1.4-3c-0.4-1.2-0.5-2.7-0.5-4.4c0-1.7,0.2-3.1,0.7-4.2c0.5-1.1,1-2.1,1.7-2.9c0.7-0.8,1.5-1.3,2.3-1.8
		c0.8-0.4,1.6-0.7,2.4-0.9c0.8-0.2,1.4-0.3,2-0.4c0.6,0,1-0.1,1.2-0.1h0.1v3.8c0,0-0.1,0-0.2,0h-0.4c-0.4,0-0.9,0.1-1.6,0.2
		c-0.7,0.1-1.3,0.4-2,0.8c-0.7,0.4-1.2,1.1-1.7,1.9C95.8,15.9,95.6,17.1,95.6,18.5z"/>
	<path class="st0" d="M106.8,18.5c0,0.9,0.1,1.8,0.3,2.6c0.2,0.8,0.4,1.5,0.7,2c0.3,0.6,0.6,1,1,1.3c0.4,0.3,0.8,0.5,1.2,0.5v-3.2
		h-1.8v-3.2h5.1v10.8c0,0-0.1,0-0.3,0h-0.5c-0.4,0-0.9,0-1.6-0.1c-0.6,0-1.3-0.2-2-0.4s-1.4-0.6-2.1-1c-0.7-0.5-1.3-1.1-1.9-1.9
		c-0.6-0.8-1-1.8-1.4-3c-0.4-1.2-0.5-2.7-0.5-4.4c0-1.7,0.2-3.1,0.7-4.2c0.5-1.1,1-2.1,1.7-2.9c0.7-0.8,1.5-1.3,2.3-1.8
		c0.8-0.4,1.6-0.7,2.4-0.9c0.8-0.2,1.4-0.3,2-0.4c0.6,0,1-0.1,1.2-0.1h0.1v3.8c0,0-0.1,0-0.2,0h-0.4c-0.4,0-0.9,0.1-1.6,0.2
		c-0.7,0.1-1.3,0.4-2,0.8c-0.7,0.4-1.2,1.1-1.7,1.9C107.1,15.9,106.8,17.1,106.8,18.5z"/>
	<path class="st0" d="M114.4,29.3v-21h7.1V12h-3.2v4.7h3.2v3.9h-3.4v4.7h3.4v3.9H114.4z"/>
	<path class="st0" d="M126.9,8.3c0.7,0,1.4,0.1,2,0.3c0.6,0.2,1.2,0.6,1.7,1s0.9,1.1,1.2,1.8s0.5,1.6,0.6,2.7
		c0.1,1.3,0.1,2.4-0.1,3.3c-0.2,0.9-0.5,1.6-0.8,2.1c-0.3,0.6-0.8,1.1-1.2,1.5l2.5,8.3H129l-1.8-7l-0.8,0.2v6.9h-3.8l0-21H126.9z
		 M126.4,18.7c0.5,0,0.8-0.2,1.1-0.3s0.5-0.4,0.8-0.7c0.2-0.3,0.3-0.6,0.4-1c0.1-0.4,0.1-0.8,0.1-1.2c0-0.4,0-0.8-0.1-1.2
		s-0.2-0.8-0.4-1.1c-0.2-0.3-0.4-0.6-0.7-0.8c-0.3-0.2-0.7-0.3-1.2-0.3V18.7z"/>
</g>
<g>
	<path class="st1" d="M134.2,36c0,1-0.8,1.6-1.7,1.6h-2.3v-5.4h2.1c0.9,0,1.7,0.6,1.7,1.5c0,0.4-0.2,0.8-0.5,1.1
		C134,35.1,134.2,35.5,134.2,36z M131.5,33.4v1h0.9c0.3,0,0.5-0.2,0.5-0.5s-0.2-0.5-0.5-0.5H131.5z M133,35.9c0-0.3-0.2-0.5-0.5-0.5
		h-1v1h1C132.8,36.5,133,36.2,133,35.9z"/>
	<path class="st1" d="M138.2,36.4v1.2h-3.4v-5.4h3.4v1.2h-2.1v0.9h1.9v1.2h-1.9v1H138.2z"/>
	<path class="st1" d="M142.6,33.4h-1.4v4.2h-1.2v-4.2h-1.4v-1.2h4V33.4z"/>
	<path class="st1" d="M145.9,36.8h-2l-0.3,0.8h-1.3l1.8-5.4h1.6l1.8,5.4h-1.3L145.9,36.8z M145.5,35.6l-0.6-2l-0.6,2H145.5z"/>
</g>
</svg>
