<?xml version="1.0" encoding="utf-8"?>
<!-- Generator: Adobe Illustrator 25.0.1, SVG Export Plug-In . SVG Version: 6.00 Build 0)  -->
<svg version="1.1" id="Logo" xmlns="http://www.w3.org/2000/svg" xmlns:xlink="http://www.w3.org/1999/xlink" x="0px" y="0px"
	 viewBox="0 0 156 42" style="enable-background:new 0 0 156 42;" xml:space="preserve">
<style type="text/css">
	.st0{fill:#FFFFFF;}
	.st1{fill:#FFC107;}
</style>
<g>
	<path class="st0" d="M25.6,9.9v16.5h-4.1v-7.3l-4.2,4.2l-4.2-4.2L9.2,15V9.9h0.6l7.6,7.6L25,9.9H25.6z M9.2,16.9l4.1,4.1v5.4H9.2
		V16.9z"/>
	<path class="st0" d="M27.3,20.4c0-3.6,2.8-6.3,6.4-6.3s6.4,2.8,6.4,6.3c0,3.6-2.8,6.3-6.4,6.3S27.3,24,27.3,20.4z M36.5,20.4
		c0-1.7-1.2-2.8-2.8-2.8s-2.8,1.1-2.8,2.8c0,1.7,1.2,2.8,2.8,2.8S36.5,22.1,36.5,20.4z"/>
	<path class="st0" d="M53,14.4l-4.4,12h-4.1l-4.4-12h4l2.5,7.6l2.5-7.6H53z"/>
	<path class="st0" d="M53.7,11.2c0-1.2,1-2.2,2.2-2.2c1.2,0,2.2,1,2.2,2.2s-1,2.2-2.2,2.2C54.7,13.3,53.7,12.3,53.7,11.2z
		 M54.1,14.4h3.6v12h-3.6V14.4z"/>
	<path class="st0" d="M66.2,23.5c1,0,1.8-0.4,2.3-0.9l2.9,1.7c-1.2,1.6-3,2.5-5.2,2.5c-4.1,0-6.6-2.8-6.6-6.3c0-3.6,2.6-6.3,6.4-6.3
		c3.5,0,6.1,2.7,6.1,6.3c0,0.5,0,1-0.1,1.4h-8.5C63.8,23.1,64.9,23.5,66.2,23.5z M68.4,19.1c-0.4-1.4-1.5-1.9-2.5-1.9
		c-1.4,0-2.3,0.7-2.6,1.9H68.4z"/>
	<path class="st0" d="M78,17.8v4.2c0,1,0.9,1.1,2.5,1v3.3c-4.7,0.5-6.1-0.9-6.1-4.3v-4.2h-1.9v-3.5h1.9v-2.3L78,11v3.4h2.5v3.5H78z"
		/>
	<path class="st0" d="M89.7,14.1v4.1c-1.5-0.2-3.6,0.4-3.6,2.7v5.4h-3.6v-12h3.6v2.1C86.6,14.9,88.2,14.1,89.7,14.1z"/>
	<path class="st0" d="M90.8,11.2c0-1.2,1-2.2,2.2-2.2c1.2,0,2.2,1,2.2,2.2s-1,2.2-2.2,2.2C91.8,13.3,90.8,12.3,90.8,11.2z
		 M91.1,14.4h3.6v12h-3.6V14.4z"/>
	<path class="st0" d="M109.4,14.4v11.4c0,4-3.1,5.7-6.3,5.7c-2.5,0-4.6-0.9-5.7-2.9l3.1-1.8c0.5,0.8,1.2,1.5,2.7,1.5
		c1.7,0,2.7-0.9,2.7-2.6v-1.1c-0.8,1-1.9,1.6-3.5,1.6c-3.4,0-5.9-2.8-5.9-6.1c0-3.3,2.5-6.1,5.9-6.1c1.6,0,2.7,0.6,3.5,1.6v-1.2
		H109.4z M105.9,20.1c0-1.7-1.2-2.8-2.9-2.8s-2.9,1.1-2.9,2.8c0,1.7,1.2,2.8,2.9,2.8S105.9,21.8,105.9,20.1z"/>
	<path class="st0" d="M124.2,14.4v11.4c0,4-3.1,5.7-6.3,5.7c-2.5,0-4.6-0.9-5.7-2.9l3.1-1.8c0.5,0.8,1.2,1.5,2.7,1.5
		c1.7,0,2.7-0.9,2.7-2.6v-1.1c-0.8,1-1.9,1.6-3.5,1.6c-3.4,0-5.9-2.8-5.9-6.1c0-3.3,2.5-6.1,5.9-6.1c1.6,0,2.7,0.6,3.5,1.6v-1.2
		H124.2z M120.7,20.1c0-1.7-1.2-2.8-2.9-2.8s-2.9,1.1-2.9,2.8c0,1.7,1.2,2.8,2.9,2.8S120.7,21.8,120.7,20.1z"/>
	<path class="st0" d="M132.7,23.5c1,0,1.8-0.4,2.3-0.9l2.9,1.7c-1.2,1.6-3,2.5-5.2,2.5c-4.1,0-6.6-2.8-6.6-6.3
		c0-3.6,2.6-6.3,6.4-6.3c3.5,0,6.1,2.7,6.1,6.3c0,0.5,0,1-0.1,1.4h-8.5C130.2,23.1,131.3,23.5,132.7,23.5z M134.9,19.1
		c-0.4-1.4-1.5-1.9-2.5-1.9c-1.4,0-2.3,0.7-2.6,1.9H134.9z"/>
	<path class="st0" d="M147.4,14.1v4.1c-1.5-0.2-3.6,0.4-3.6,2.7v5.4h-3.6v-12h3.6v2.1C144.3,14.9,145.9,14.1,147.4,14.1z"/>
</g>
<g>
	<path class="st1" d="M131.2,33.9c0,1.6-1.2,2.8-2.7,2.8h-2.2v-5.6h2.2C130,31.1,131.2,32.3,131.2,33.9z M130,33.9
		c0-1-0.6-1.6-1.5-1.6h-1v3.1h1C129.4,35.5,130,34.9,130,33.9z"/>
	<path class="st1" d="M133.7,34.9h-0.6v1.8h-1.3v-5.6h2.2c1.1,0,1.9,0.9,1.9,1.9c0,0.7-0.4,1.3-1,1.6l1.2,2.1h-1.4L133.7,34.9z
		 M133.1,33.8h1c0.4,0,0.6-0.3,0.6-0.7s-0.3-0.7-0.6-0.7h-1V33.8z"/>
	<path class="st1" d="M138,31.1v5.6h-1.3v-5.6H138z"/>
	<path class="st1" d="M138.4,31.1h1.4l1.2,4.1l1.2-4.1h1.4l-1.8,5.6h-1.6L138.4,31.1z"/>
	<path class="st1" d="M147.6,35.5v1.2H144v-5.6h3.5v1.2h-2.2v0.9h2v1.2h-2v1H147.6z"/>
</g>
</svg>
